<svg xmlns="http://www.w3.org/2000/svg" viewBox="0 0 222.15 222.15"><g id="bb7db130-f460-4e56-a794-1c15654a0257" data-name="Layer 2"><g id="f1554dd5-24ef-4119-a846-d1facefdb8bc" data-name="Layer 1"><rect width="222.15" height="222.15" rx="50" style="fill:#020b2d"/><path d="M39.21,94.32V51a5.53,5.53,0,0,1,1.7-4A5.61,5.61,0,0,1,45,45.22H62.85q8.08,0,12.75,4.83a16.53,16.53,0,0,1,4.67,12,16.38,16.38,0,0,1-4.69,11.89q-4.68,4.83-12.73,4.83H48.75V94.32a4.48,4.48,0,0,1-1.43,3.34,4.75,4.75,0,0,1-3.46,1.39,4.43,4.43,0,0,1-3.28-1.39A4.57,4.57,0,0,1,39.21,94.32Zm9.54-24H61.56A9.13,9.13,0,0,0,68,68a7.76,7.76,0,0,0,2.52-6,7.9,7.9,0,0,0-2.5-6.1,9.14,9.14,0,0,0-6.44-2.3H48.75Z" style="fill:#fff"/><path d="M78.47,93.89a3.49,3.49,0,0,1,.43-1.75L95.54,49.79a7.69,7.69,0,0,1,2.93-3.67A7.89,7.89,0,0,1,103,44.75h.4A8.42,8.42,0,0,1,107.77,46a8,8,0,0,1,3.2,3.79l16.72,42.35a6.65,6.65,0,0,1,.31,1.75,5.2,5.2,0,0,1-1.44,3.57,4.76,4.76,0,0,1-3.67,1.59,4.86,4.86,0,0,1-2.8-.87,5,5,0,0,1-1.85-2.28l-2.81-7.48H91.13L88.24,95.9a4.48,4.48,0,0,1-1.82,2.28,5,5,0,0,1-2.83.87,4.83,4.83,0,0,1-3.67-1.53A5.12,5.12,0,0,1,78.47,93.89ZM93.75,80h19l-9.45-25.2Z" style="fill:#fff"/><path d="M134.16,86.17a29,29,0,0,1-3.46-14.23,29,29,0,0,1,3.46-14.23,24.83,24.83,0,0,1,9.68-9.84A28,28,0,0,1,158,44.32a28.75,28.75,0,0,1,11,2.09,25.43,25.43,0,0,1,8.67,5.73,26.38,26.38,0,0,1,5.6,8.76,30.75,30.75,0,0,1,0,22.08,26.38,26.38,0,0,1-5.6,8.76A25.43,25.43,0,0,1,169,97.47a28.75,28.75,0,0,1-11,2.09A28,28,0,0,1,143.84,96,24.83,24.83,0,0,1,134.16,86.17Zm6.3-14.23q0,8.32,4.83,13.78a17.51,17.51,0,0,0,25.37,0q4.84-5.44,4.84-13.78t-4.82-13.79a17.58,17.58,0,0,0-25.39,0Q140.46,63.53,140.46,71.94Z" style="fill:#fff"/><path d="M39.21,172.84V129.36a4.41,4.41,0,0,1,1.39-3.24A4.69,4.69,0,0,1,44,124.75a4.61,4.61,0,0,1,3.32,1.39,4.38,4.38,0,0,1,1.41,3.22v40.82H68.51a4.06,4.06,0,0,1,2.91,1.19,3.87,3.87,0,0,1,1.23,2.87,4.22,4.22,0,0,1-1.23,3.09,4,4,0,0,1-2.91,1.25H45a5.61,5.61,0,0,1-4.09-1.7A5.53,5.53,0,0,1,39.21,172.84Z" style="fill:#fff"/><path d="M79.31,166.17a31.07,31.07,0,0,1,0-28.46A24.92,24.92,0,0,1,89,127.87a28,28,0,0,1,14.12-3.55,28.82,28.82,0,0,1,11,2.09,25.29,25.29,0,0,1,8.66,5.73,26.25,26.25,0,0,1,5.61,8.76,30.75,30.75,0,0,1,0,22.08,26.25,26.25,0,0,1-5.61,8.76,25.29,25.29,0,0,1-8.66,5.73,28.82,28.82,0,0,1-11,2.09A28,28,0,0,1,89,176,24.92,24.92,0,0,1,79.31,166.17Zm6.31-14.23q0,8.33,4.83,13.78a16.14,16.14,0,0,0,12.67,5.44,16.21,16.21,0,0,0,12.7-5.44,20,20,0,0,0,4.84-13.78q0-8.37-4.82-13.79a16.2,16.2,0,0,0-12.72-5.43,16.14,16.14,0,0,0-12.67,5.41Q85.62,143.53,85.62,151.94Z" style="fill:#fff"/><path d="M161.81,135.92l3.45,7a3.37,3.37,0,0,0,2.56,1.86l7.69,1.12a3.4,3.4,0,0,1,1.89,5.8l-5.57,5.43a3.41,3.41,0,0,0-1,3l1.32,7.67a3.4,3.4,0,0,1-4.94,3.58l-6.88-3.62a3.42,3.42,0,0,0-3.17,0l-6.88,3.62a3.4,3.4,0,0,1-4.94-3.58l1.32-7.67a3.41,3.41,0,0,0-1-3l-5.57-5.43a3.4,3.4,0,0,1,1.89-5.8l7.69-1.12a3.37,3.37,0,0,0,2.56-1.86l3.44-7A3.4,3.4,0,0,1,161.81,135.92Z" style="fill:#ec1655"/></g></g></svg>